<?xml version="1.0" standalone="no"?>
<!DOCTYPE svg PUBLIC "-//W3C//DTD SVG 20010904//EN"
 "http://www.w3.org/TR/2001/REC-SVG-20010904/DTD/svg10.dtd">
<svg version="1.0" xmlns="http://www.w3.org/2000/svg"
 width="200.000000pt" height="200.000000pt" viewBox="0 0 200.000000 200.000000"
 preserveAspectRatio="xMidYMid meet">

<g transform="translate(0.000000,200.000000) scale(0.100000,-0.100000)"
fill="#000000" stroke="none">
<path d="M0 1000 l0 -1000 1000 0 1000 0 0 1000 0 1000 -1000 0 -1000 0 0
-1000z m727 578 c145 -145 263 -267 263 -273 0 -5 -75 -85 -167 -177 l-167
-168 -33 32 c-18 18 -33 37 -33 43 0 6 60 70 133 143 l133 131 -181 181 -180
180 3 -277 c2 -263 2 -275 -15 -263 -10 8 101 -106 247 -253 l264 -266 -29
-31 c-16 -16 -27 -30 -24 -30 2 0 137 134 299 297 162 163 287 291 277 283
-17 -12 -17 0 -15 263 l3 277 -182 -182 -183 -183 137 -137 137 -138 -34 -35
-34 -35 -168 167 c-92 92 -168 172 -168 178 0 6 119 129 265 275 l264 264 31
-29 30 -29 0 -345 0 -344 -27 24 -28 24 28 -31 c15 -16 27 -34 27 -39 0 -16
-584 -595 -600 -595 -16 0 -600 578 -600 594 0 6 12 24 28 40 l27 31 -27 -24
-28 -24 0 343 0 344 27 28 c15 15 29 28 32 28 3 0 124 -118 268 -262z m-187
-663 l34 -35 -42 -43 -41 -42 254 -255 255 -255 255 255 255 255 -42 42 -42
43 34 35 34 35 43 -42 c23 -23 39 -46 36 -51 -3 -6 -2 -7 4 -4 5 3 25 -9 44
-29 l33 -34 -320 -320 c-175 -176 -325 -320 -332 -320 -14 0 -628 603 -643
633 -8 14 -3 24 20 48 18 17 36 27 42 23 8 -5 9 -3 4 5 -4 8 7 27 31 52 21 21
41 39 44 39 3 0 21 -16 40 -35z"/>
</g>
</svg>
